<svg xmlns="http://www.w3.org/2000/svg" viewBox="0 0 96 96" role="img" aria-label="Local AI Chat">
  <defs>
    <linearGradient id="warm" x1="16" y1="12" x2="82" y2="88" gradientUnits="userSpaceOnUse">
      <stop offset="0" stop-color="#F29A72"/>
      <stop offset="0.55" stop-color="#D97757"/>
      <stop offset="1" stop-color="#9D5A44"/>
    </linearGradient>
    <linearGradient id="soft" x1="24" y1="20" x2="74" y2="78" gradientUnits="userSpaceOnUse">
      <stop offset="0" stop-color="#FFF7EA"/>
      <stop offset="1" stop-color="#F0D8C2"/>
    </linearGradient>
    <filter id="shadow" x="-20%" y="-20%" width="140%" height="140%">
      <feDropShadow dx="0" dy="6" stdDeviation="5" flood-color="#6E3D2F" flood-opacity=".18"/>
    </filter>
  </defs>
  <circle cx="48" cy="48" r="42" fill="#FFFDF8"/>
  <g filter="url(#shadow)">
    <path fill="url(#warm)" d="M48 9c3 0 5.4 2.4 5.4 5.4v17.1l12.1-12.1a5.4 5.4 0 1 1 7.7 7.7L61.1 39.2h17.1a5.4 5.4 0 1 1 0 10.8H61.1l12.1 12.1a5.4 5.4 0 0 1-7.7 7.7L53.4 57.7v17.1a5.4 5.4 0 1 1-10.8 0V57.7L30.5 69.8a5.4 5.4 0 0 1-7.7-7.7l12.1-12.1H17.8a5.4 5.4 0 1 1 0-10.8h17.1L22.8 27.1a5.4 5.4 0 0 1 7.7-7.7l12.1 12.1V14.4C42.6 11.4 45 9 48 9Z"/>
  </g>
  <circle cx="48" cy="48" r="20" fill="url(#soft)"/>
  <path d="M34 51c3.4 8.1 10.6 11.7 18 10.8 5.2-.6 9.5-3.4 12-8" fill="none" stroke="#6A4538" stroke-width="3.1" stroke-linecap="round"/>
  <circle cx="40" cy="43" r="4.2" fill="none" stroke="#6A4538" stroke-width="2.6"/>
  <circle cx="56" cy="43" r="4.2" fill="none" stroke="#6A4538" stroke-width="2.6"/>
  <path d="M44.4 43h7.2" fill="none" stroke="#6A4538" stroke-width="2.2" stroke-linecap="round"/>
  <path d="M31 39c5-12.5 22-15.5 31.2-7.6 4.1 3.5 6.1 8.5 5.6 13.7" fill="none" stroke="#2F2A25" stroke-width="5" stroke-linecap="round"/>
</svg>
